<svg xmlns="http://www.w3.org/2000/svg" viewBox="0 0 35.56 35.56"><defs><style>.cls-1{fill:#cbcbcb;stroke:#cbcbcb;stroke-width:0.65px;}.cls-1,.cls-2{stroke-miterlimit:10;}.cls-2{fill:#fff;stroke:#666;stroke-width:1.58px;}</style></defs><g id="Capa_2" data-name="Capa 2"><g id="Layer_1" data-name="Layer 1"><circle class="cls-1" cx="17.78" cy="17.78" r="17.46"/><path class="cls-2" d="M15.23,20.39c-2.16-1.81-5-1.56-6.33,0a4.15,4.15,0,0,0,0,4.74,5.21,5.21,0,0,0,6.33,1.58l9.48-11.06a4.7,4.7,0,0,0,1.58-4.75,4.27,4.27,0,0,0-3.16-3.16c-2.1-.39-4.56,1.11-4.74,3.16A4,4,0,0,0,20,14.06a12.52,12.52,0,0,1-1.58,3.17A12.74,12.74,0,0,1,15.23,20.39Z"/></g></g></svg>