<svg xmlns="http://www.w3.org/2000/svg" viewBox="0 0 33.42 35.9"><defs><style>.cls-1,.cls-2,.cls-3{fill:none;stroke:#c0272d;stroke-miterlimit:10;}.cls-1{stroke-width:1.42px;}.cls-2{stroke-width:1.4px;}.cls-3{stroke-width:1.27px;}</style></defs><g id="Capa_2" data-name="Capa 2"><g id="Layer_1" data-name="Layer 1"><path class="cls-1" d="M7.86,3.91h17.7A3.59,3.59,0,0,1,29.16,7.5v.67a0,0,0,0,1,0,0H4.27a0,0,0,0,1,0,0V7.5A3.59,3.59,0,0,1,7.86,3.91Z"/><path class="cls-1" d="M14.12.71h5.71a1.86,1.86,0,0,1,1.86,1.86V3.74a0,0,0,0,1,0,0H12.26a0,0,0,0,1,0,0V2.57A1.86,1.86,0,0,1,14.12.71Z"/><path class="cls-2" d="M5.69,8.22,7.28,34A1.3,1.3,0,0,0,8.56,35.2H24.77A1.29,1.29,0,0,0,26,34L27.73,8.16Z"/><path class="cls-1" d="M5.69,10.31v2.85"/><path class="cls-1" d="M2.13,10.31H5.69a0,0,0,0,1,0,0v2.84a0,0,0,0,1,0,0H2.13A1.42,1.42,0,0,1,.71,11.73v0a1.42,1.42,0,0,1,1.42-1.42Z"/><path class="cls-1" d="M29.16,10.31h3.56a0,0,0,0,1,0,0v2.84a0,0,0,0,1,0,0H29.16a1.42,1.42,0,0,1-1.42-1.42v0A1.42,1.42,0,0,1,29.16,10.31Z" transform="translate(60.44 23.47) rotate(180)"/><rect class="cls-3" x="9.24" y="11.73" width="2.84" height="19.91" rx="1.42" transform="translate(-1.41 0.75) rotate(-3.78)"/><rect class="cls-3" x="20.84" y="11.71" width="2.84" height="19.91" rx="1.42" transform="translate(43.05 44.75) rotate(-176.22)"/><rect class="cls-3" x="14.93" y="11.73" width="2.84" height="19.91" rx="1.42"/></g></g></svg>