<svg xmlns="http://www.w3.org/2000/svg" viewBox="0 0 10.03 16.69"><defs><style>.cls-1{fill:#666;}</style></defs><g id="Capa_2" data-name="Capa 2"><g id="Layer_1" data-name="Layer 1"><path class="cls-1" d="M9.89,6.2A5.3,5.3,0,0,0,10,5,5,5,0,0,0,0,5,5.3,5.3,0,0,0,.14,6.2a7.71,7.71,0,0,0,.55,2c.49,1,2.57,4.45,3.52,6-1.29.16-1.89.72-1.89,1.24S3.17,16.69,5,16.69s2.7-.67,2.7-1.29-.6-1.08-1.89-1.24c.95-1.56,3-5,3.52-6A7.71,7.71,0,0,0,9.89,6.2Zm-3,9.2c0,.14-.7.51-1.92.51s-1.87-.37-1.91-.51.56-.44,1.56-.5l0,0a.41.41,0,0,0,.33.18.39.39,0,0,0,.33-.18l0,0C6.36,15,6.88,15.27,6.93,15.4ZM9.13,6v0a6.69,6.69,0,0,1-.48,1.76C8.14,8.86,5.87,12.59,5,14c-.85-1.4-3.12-5.13-3.62-6.17A6.65,6.65,0,0,1,.9,6.06V6A4.32,4.32,0,0,1,.77,5,4.24,4.24,0,0,1,9.25,5,4.31,4.31,0,0,1,9.13,6Z"/><path class="cls-1" d="M5,2.2a2.69,2.69,0,1,0,2.7,2.69A2.69,2.69,0,0,0,5,2.2ZM5,6.8A1.92,1.92,0,1,1,6.93,4.89,1.92,1.92,0,0,1,5,6.8Z"/></g></g></svg>