<svg xmlns="http://www.w3.org/2000/svg" viewBox="0 0 17.7 18.77"><defs><style>.cls-1{fill:none;stroke:#666;stroke-miterlimit:10;stroke-width:1.41px;}</style></defs><g id="Capa_2" data-name="Capa 2"><g id="Layer_1" data-name="Layer 1"><path class="cls-1" d="M7,12c-1.93-1.61-4.49-1.39-5.64,0a3.69,3.69,0,0,0,0,4.22A4.63,4.63,0,0,0,7,17.67q4.22-4.94,8.45-9.86a4.19,4.19,0,0,0,1.41-4.23A3.78,3.78,0,0,0,14.05.76C12.18.41,10,1.75,9.82,3.58A3.62,3.62,0,0,0,11.23,6.4,11.13,11.13,0,0,1,9.82,9.22,11.22,11.22,0,0,1,7,12Z"/></g></g></svg>