<svg width="26" height="24" viewBox="0 0 26 24" fill="none" xmlns="http://www.w3.org/2000/svg">
<g clip-path="url(#clip0_665_31)">
<path d="M3.49 19H15.73L22.05 23.23C22.1576 23.308 22.2871 23.35 22.42 23.35C22.5314 23.3485 22.641 23.3211 22.74 23.27C22.8469 23.2107 22.9358 23.1237 22.9974 23.0181C23.059 22.9125 23.091 22.7922 23.09 22.67V18.67C24.32 18.15 25.8 17.03 25.8 15.52V3.48001C25.7974 2.55787 25.4299 1.67424 24.7778 1.02219C24.1258 0.370131 23.2421 0.00263848 22.32 0H3.49C2.5652 0.00263852 1.67904 0.371185 1.02511 1.02512C0.371181 1.67905 0.00263852 2.5652 0 3.48999V15.55C0.0131098 16.4678 0.386269 17.3438 1.03907 17.9891C1.69188 18.6344 2.57207 18.9975 3.49 19ZM1.35 3.45001C1.35 3.16898 1.40535 2.89068 1.5129 2.63104C1.62044 2.37141 1.77807 2.13552 1.97679 1.9368C2.17551 1.73808 2.41142 1.58045 2.67105 1.4729C2.93069 1.36536 3.20897 1.31 3.49 1.31H22.32C22.8876 1.31 23.4319 1.53547 23.8332 1.9368C24.2345 2.33813 24.46 2.88245 24.46 3.45001V15.51C24.46 16.3 23.28 17.22 22.22 17.51C22.0829 17.5545 21.9634 17.6415 21.879 17.7583C21.7945 17.8752 21.7493 18.0158 21.75 18.16V21.37L16.31 17.73C16.2024 17.652 16.0729 17.61 15.94 17.61H3.49C3.20897 17.61 2.93069 17.5547 2.67105 17.4471C2.41142 17.3396 2.17551 17.1819 1.97679 16.9832C1.77807 16.7845 1.62044 16.5486 1.5129 16.2889C1.40535 16.0293 1.35 15.751 1.35 15.47V3.45001Z" fill="white"/>
<path d="M22.3074 6.26999C22.3048 6.60508 22.1698 6.92555 21.9319 7.16156C21.694 7.39757 21.3725 7.53001 21.0374 7.53H5.15742C4.84133 7.50187 4.54723 7.35641 4.33302 7.12228C4.1188 6.88816 4 6.58232 4 6.26498C4 5.94765 4.1188 5.64184 4.33302 5.40771C4.54723 5.17359 4.84133 5.02813 5.15742 5H21.0374C21.3742 5 21.6973 5.13381 21.9354 5.37198C22.1736 5.61015 22.3074 5.93316 22.3074 6.26999Z" fill="white"/>
<path d="M22.3074 9.76999C22.3048 10.1051 22.1698 10.4255 21.9319 10.6616C21.694 10.8976 21.3725 11.03 21.0374 11.03H5.15742C4.84133 11.0019 4.54723 10.8564 4.33302 10.6223C4.1188 10.3882 4 10.0823 4 9.76498C4 9.44765 4.1188 9.14184 4.33302 8.90771C4.54723 8.67359 4.84133 8.52813 5.15742 8.5H21.0374C21.3742 8.5 21.6973 8.63381 21.9354 8.87198C22.1736 9.11015 22.3074 9.43316 22.3074 9.76999Z" fill="white"/>
<path d="M22.3074 13.27C22.3048 13.6051 22.1698 13.9255 21.9319 14.1616C21.694 14.3976 21.3725 14.53 21.0374 14.53H5.15742C4.84133 14.5019 4.54723 14.3564 4.33302 14.1223C4.1188 13.8882 4 13.5823 4 13.265C4 12.9476 4.1188 12.6418 4.33302 12.4077C4.54723 12.1736 4.84133 12.0281 5.15742 12H21.0374C21.3742 12 21.6973 12.1338 21.9354 12.372C22.1736 12.6101 22.3074 12.9332 22.3074 13.27Z" fill="white"/>
</g>
<defs>
<clipPath id="clip0_665_31">
<rect width="26" height="24" fill="white"/>
</clipPath>
</defs>
</svg>
