<svg width="35" height="32" viewBox="0 0 35 32" fill="none" xmlns="http://www.w3.org/2000/svg">
<g clip-path="url(#clip0_665_26)">
<path d="M30.32 21.86L27.9 18.21L25.83 15H8.83L6.83 18.15V18.22L4.4 21.86L1 27.05H14V31.23H20.9V27.05H33.77L30.32 21.86ZM24.75 16.94L25.3 17.77H23.45L23.18 16.94H24.75ZM18.33 16.94H21.16L21.43 17.77H18.33V16.94ZM18.33 19.7H22.05L22.6 21.43H18.33V19.7ZM13.7 16.94H16.41V17.77H13.47L13.7 16.94ZM12.94 19.7H16.41V21.43H12.41L12.94 19.7ZM9.94 16.94H11.73L11.5 17.77H9.4L9.94 16.94ZM9.47 25.13H4.57L5.74 23.35H9.93L9.47 25.13ZM10.47 21.43H6.97L8.11 19.7H10.94L10.47 21.43ZM11.47 25.13L11.96 23.35H16.45V25.13H11.47ZM19.02 29.32H16.02V27.06H19.02V29.32ZM18.37 25.13V23.35H23.26L23.83 25.13H18.37ZM24.11 19.7H26.61L27.77 21.43H24.63L24.11 19.7ZM25.83 25.11L25.27 23.33H29.02L30.2 25.11H25.83Z" stroke="white" stroke-width="0.87" stroke-miterlimit="10"/>
<path d="M30.2498 9.49999C29.411 9.49996 28.5909 9.25168 27.8929 8.78643C27.1948 8.32118 26.6501 7.65976 26.3273 6.88551C26.0045 6.11125 25.918 5.25877 26.0788 4.43546C26.2396 3.61215 26.6404 2.85484 27.2308 2.2589C27.8211 1.66297 28.5747 1.25508 29.3964 1.0866C30.2182 0.918125 31.0714 0.996595 31.8487 1.31214C32.6259 1.62769 33.2924 2.1662 33.7642 2.85983C34.236 3.55345 34.4919 4.37118 34.4998 5.21C34.5038 5.77111 34.3968 6.32747 34.1851 6.84713C33.9735 7.36679 33.6612 7.83951 33.2663 8.23814C32.8714 8.63677 32.4016 8.95346 31.8839 9.17001C31.3663 9.38655 30.8109 9.49869 30.2498 9.49999ZM30.2498 2.92001C29.7873 2.92007 29.3353 3.05778 28.9513 3.31562C28.5673 3.57346 28.2687 3.93975 28.0936 4.36784C27.9185 4.79592 27.8747 5.26644 27.9679 5.71948C28.0611 6.17251 28.2871 6.58756 28.6169 6.91177C28.9468 7.23597 29.3657 7.45467 29.8203 7.54C30.2748 7.62534 30.7445 7.57344 31.1695 7.39094C31.5945 7.20844 31.9556 6.90358 32.2067 6.51519C32.4579 6.1268 32.5878 5.67245 32.5798 5.21C32.5693 4.599 32.3192 4.01658 31.8834 3.58823C31.4476 3.15989 30.8609 2.91992 30.2498 2.92001Z" stroke="white" stroke-width="0.87" stroke-miterlimit="10"/>
</g>
<defs>
<clipPath id="clip0_665_26">
<rect width="35" height="32" fill="white"/>
</clipPath>
</defs>
</svg>
