<svg width="25" height="25" viewBox="0 0 25 25" fill="none" xmlns="http://www.w3.org/2000/svg">
<path d="M4.1665 8.33366L3.4594 9.04077L2.75229 8.33366L3.4594 7.62655L4.1665 8.33366ZM9.37484 20.792C8.82255 20.792 8.37484 20.3443 8.37484 19.792C8.37484 19.2397 8.82255 18.792 9.37484 18.792L9.37484 20.792ZM8.66773 14.2491L3.4594 9.04077L4.87361 7.62655L10.0819 12.8349L8.66773 14.2491ZM3.4594 7.62655L8.66773 2.41822L10.0819 3.83243L4.87361 9.04077L3.4594 7.62655ZM4.1665 7.33366L15.104 7.33366L15.104 9.33366L4.1665 9.33366L4.1665 7.33366ZM15.104 20.792L9.37484 20.792L9.37484 18.792L15.104 18.792L15.104 20.792ZM21.8332 14.0628C21.8332 17.7792 18.8204 20.792 15.104 20.792L15.104 18.792C17.7158 18.792 19.8332 16.6747 19.8332 14.0628L21.8332 14.0628ZM15.104 7.33366C18.8204 7.33366 21.8332 10.3464 21.8332 14.0628L19.8332 14.0628C19.8332 11.451 17.7158 9.33366 15.104 9.33366L15.104 7.33366Z" fill="white"/>
</svg>
