<svg width="69" height="69" viewBox="0 0 69 69" fill="none" xmlns="http://www.w3.org/2000/svg">
<path d="M34.501 11.5L14.376 20.125L34.501 28.75L54.626 20.125L34.501 11.5Z" stroke="#5E7E4F" stroke-width="3" stroke-linejoin="round"/>
<path fill-rule="evenodd" clip-rule="evenodd" d="M23.058 29.1465L13.7827 33.1216C13.2311 33.358 12.8735 33.9003 12.8735 34.5003C12.8735 35.1004 13.2311 35.6427 13.7827 35.8791L33.9077 44.5041C34.285 44.6658 34.7121 44.6658 35.0894 44.5041L55.2144 35.8791C55.7659 35.6427 56.1235 35.1004 56.1235 34.5003C56.1235 33.9003 55.7659 33.358 55.2144 33.1216L45.9391 29.1465L42.1312 30.7784L50.8157 34.5003L34.4985 41.4934L18.1814 34.5003L26.8659 30.7784L23.058 29.1465Z" fill="#5E7E4F"/>
<path fill-rule="evenodd" clip-rule="evenodd" d="M23.0587 43.5215L13.7827 47.4969C13.2311 47.7333 12.8735 48.2756 12.8735 48.8756C12.8735 49.4757 13.2311 50.018 13.7827 50.2543L33.9077 58.8793C34.285 59.0411 34.7121 59.0411 35.0894 58.8793L55.2144 50.2543C55.7659 50.018 56.1235 49.4757 56.1235 48.8756C56.1235 48.2756 55.7659 47.7333 55.2144 47.4969L45.9384 43.5215L42.1305 45.1534L50.8157 48.8756L34.4985 55.8687L18.1814 48.8756L26.8665 45.1534L23.0587 43.5215Z" fill="#5E7E4F"/>
</svg>
