<svg xmlns="http://www.w3.org/2000/svg" viewBox="0 0 22.88 25.21"><defs><style>.cls-1{fill:#4d4d4d;}</style></defs><g id="Capa_2" data-name="Capa 2"><g id="Layer_1" data-name="Layer 1"><path class="cls-1" d="M.44,0h0A.44.44,0,0,0,0,.44V24.73a.44.44,0,0,0,.44.43l22,.05h0a.44.44,0,0,0,.44-.44V.49a.44.44,0,0,0-.44-.44ZM22,24.33l-21.12,0V.88L22,.92Z"/><path class="cls-1" d="M7.1,8.91A2.13,2.13,0,0,0,9.24,6.78,2.15,2.15,0,0,0,7.1,4.64h0A2.13,2.13,0,0,0,5,6.77,2.12,2.12,0,0,0,7.1,8.91ZM5.84,6.77A1.25,1.25,0,0,1,7.1,5.52h0A1.24,1.24,0,0,1,8,5.89a1.22,1.22,0,0,1,.37.89A1.26,1.26,0,0,1,7.1,8h0A1.26,1.26,0,0,1,5.84,6.77Z"/><path class="cls-1" d="M2.85,18.93h17.2a.44.44,0,0,0,.44-.44V2.83a.43.43,0,0,0-.44-.44H2.83a.44.44,0,0,0-.44.44V18.37a.41.41,0,0,0,0,.16A.44.44,0,0,0,2.85,18.93Zm16.76-1v.12H3.29v-2.9L6,11.78l3.31,2.81a.44.44,0,0,0,.33.1.4.4,0,0,0,.3-.17l4.5-5.91,5.15,5ZM3.27,3.27H19.61v9.11L14.72,7.64a.43.43,0,0,0-.34-.13.42.42,0,0,0-.31.17L9.54,13.62l-3.29-2.8a.44.44,0,0,0-.33-.11.43.43,0,0,0-.3.16L3.27,13.78Z"/></g></g></svg>