<svg xmlns="http://www.w3.org/2000/svg" viewBox="0 0 30.89 23.77"><defs><style>.cls-1{fill:#4d4d4d;}</style></defs><g id="Capa_2" data-name="Capa 2"><g id="Layer_1" data-name="Layer 1"><path class="cls-1" d="M4.1,8.14H16.88a.38.38,0,0,0,0-.76H4.1a.38.38,0,0,0,0,.76Z"/><path class="cls-1" d="M16.88,17.85H4.1a.38.38,0,0,0-.38.38.37.37,0,0,0,.38.37H16.88a.37.37,0,0,0,.38-.37A.38.38,0,0,0,16.88,17.85Z"/><path class="cls-1" d="M30.2.87l0,0A2.27,2.27,0,0,0,28.55.1,2.41,2.41,0,0,0,27,.79L22,5.72a.39.39,0,0,0-.11.27s0,.06,0,.09l-.29.3-.13-.14L21,6.76V0H0V23.77H21V13.27L24.75,9.5l-.14-.14.3-.29H25A.34.34,0,0,0,25.27,9l4.87-4.86a2.61,2.61,0,0,0,.75-1.66A2.17,2.17,0,0,0,30.2.87ZM20.22,14v9H.76V.76H20.22V7.52L16,11.76l.31.3-.11.6H4.1a.38.38,0,0,0-.38.38.39.39,0,0,0,.38.38h12l-.32,1.85,3.21-.55.29.29,1-1,.38-.38Zm-3.5.87L16,15H16l.14-.76.16.16.36-2,2,2-2.05.35Zm2.51-1-2.17-2.18L21.5,7.32,23.68,9.5Zm5-4.71L21.77,6.78,22,6.53,24.46,9Zm5.4-5.66L25,8.17,22.83,6l4.66-4.67h0A1.74,1.74,0,0,1,28.56.86a1.53,1.53,0,0,1,1.07.51l0,0a1.49,1.49,0,0,1,.48,1A1.86,1.86,0,0,1,29.61,3.57Z"/><path class="cls-1" d="M22,4.75a.33.33,0,0,0,.47,0L26,1.25a.33.33,0,0,0,0-.47h0a.33.33,0,0,0-.47,0L22,4.27a.33.33,0,0,0,0,.47Z"/></g></g></svg>